<?xml version="1.0" encoding="UTF-8"?>
<svg version="1.1" xmlns="http://www.w3.org/2000/svg" width="500" height="500">
<path d="M0 0 C10.08473761 8.24586991 17.26493745 20.41315805 18.84765625 33.4140625 C19.75776678 50.65365614 17.55310666 64.99038083 5.84765625 78.4140625 C-5.59505977 87.20630915 -18.12356215 91.5618057 -32.48046875 91.4609375 C-33.7324707 91.45416992 -34.98447266 91.44740234 -36.27441406 91.44042969 C-37.22413086 91.43172852 -38.17384766 91.42302734 -39.15234375 91.4140625 C-39.05843221 96.28906403 -38.95225648 101.16359087 -38.83496094 106.03808594 C-38.79679865 107.69458806 -38.761924 109.35116945 -38.73046875 111.0078125 C-38.68453975 113.39612051 -38.62659338 115.78388882 -38.56640625 118.171875 C-38.55485504 118.90648956 -38.54330383 119.64110413 -38.53140259 120.39797974 C-38.40827539 124.73738646 -38.00586357 128.46230205 -36.15234375 132.4140625 C-34.17234375 133.4040625 -34.17234375 133.4040625 -32.15234375 134.4140625 C-42.05234375 134.4140625 -51.95234375 134.4140625 -62.15234375 134.4140625 C-59.67734375 132.4340625 -59.67734375 132.4340625 -57.15234375 130.4140625 C-54.82215121 125.56057209 -54.86154289 120.85364078 -54.87768555 115.58227539 C-54.87001915 114.2810952 -54.87001915 114.2810952 -54.86219788 112.95362854 C-54.84834472 110.09792096 -54.84925535 107.24245586 -54.8515625 104.38671875 C-54.84767339 102.39424043 -54.84333827 100.40176293 -54.83857727 98.4092865 C-54.83112438 94.23742991 -54.83139973 90.06565796 -54.83666992 85.89379883 C-54.84246502 80.55631035 -54.82552796 75.21916883 -54.80232525 69.88173771 C-54.78757099 65.76812221 -54.78671849 61.65458996 -54.78983498 57.54095268 C-54.78932267 55.57343292 -54.78410207 53.60590839 -54.77402306 51.63841438 C-54.76164244 48.88379691 -54.76845994 46.12985141 -54.7800293 43.37524414 C-54.77238556 42.56827087 -54.76474182 41.76129761 -54.75686646 40.92987061 C-54.80527139 35.69744677 -55.60693626 32.02426348 -58.15234375 27.4140625 C-59.47234375 26.4240625 -60.79234375 25.4340625 -62.15234375 24.4140625 C-52.25234375 24.4140625 -42.35234375 24.4140625 -32.15234375 24.4140625 C-33.80234375 26.0640625 -35.45234375 27.7140625 -37.15234375 29.4140625 C-38.18500857 32.51205696 -38.307439 34.73665523 -38.35766602 37.98706055 C-38.37761124 39.12801682 -38.39755646 40.26897308 -38.41810608 41.44450378 C-38.43481857 42.67582535 -38.45153107 43.90714691 -38.46875 45.17578125 C-38.49992165 47.06717583 -38.49992165 47.06717583 -38.53172302 48.9967804 C-38.58606497 52.34551708 -38.63630541 55.69426455 -38.68457031 59.04309082 C-38.73484732 62.46172479 -38.79050099 65.88027076 -38.84570312 69.29882812 C-38.95287875 76.00383612 -39.05464887 82.70891003 -39.15234375 89.4140625 C-36.45522593 88.97940302 -33.76065716 88.53385265 -31.06640625 88.08203125 C-30.31109619 87.96146362 -29.55578613 87.840896 -28.77758789 87.7166748 C-19.05121259 86.0640843 -10.68521831 82.41419603 -4.54296875 74.453125 C-4.0840625 73.78023438 -3.62515625 73.10734375 -3.15234375 72.4140625 C-2.7553125 71.84429687 -2.35828125 71.27453125 -1.94921875 70.6875 C5.24640533 58.49789801 5.37973622 40.63442779 2.28515625 27.3515625 C-0.79334978 15.49889103 -7.3137099 3.8748745 -17.9921875 -2.72265625 C-19.69863372 -3.70120187 -21.42414832 -4.6463361 -23.15234375 -5.5859375 C-22.81009766 -3.70648438 -22.81009766 -3.70648438 -22.4609375 -1.7890625 C-22.17014237 -0.13809661 -21.87980151 1.51294934 -21.58984375 3.1640625 C-21.43837891 3.9890625 -21.28691406 4.8140625 -21.13085938 5.6640625 C-20.99228516 6.46328125 -20.85371094 7.2625 -20.7109375 8.0859375 C-20.58001709 8.8190918 -20.44909668 9.55224609 -20.31420898 10.30761719 C-20.13986963 12.57639537 -20.48359568 14.25184829 -21.15234375 16.4140625 C-21.53003906 15.77339844 -21.90773438 15.13273437 -22.296875 14.47265625 C-27.38520435 6.47671013 -33.83031761 0.89356459 -42.96484375 -2.0859375 C-54.773628 -4.26378705 -66.7851736 -1.07536797 -76.83984375 5.1015625 C-90.17163962 14.64808062 -95.96803089 28.5624125 -98.80029297 44.21728516 C-102.10179585 64.81847997 -100.23596243 90.30973521 -89.15234375 108.4140625 C-82.30888733 114.78006847 -72.1420686 115.85937735 -63.15234375 116.4140625 C-62.82234375 117.4040625 -62.49234375 118.3940625 -62.15234375 119.4140625 C-69.77548849 119.64982986 -76.73803784 119.25123565 -84.15234375 117.4140625 C-69.7734269 134.06189588 -52.06194703 145.64761041 -29.48046875 147.3203125 C-28.7121875 147.35125 -27.94390625 147.3821875 -27.15234375 147.4140625 C-26.1778125 147.465625 -25.20328125 147.5171875 -24.19921875 147.5703125 C-5.2727593 148.09849276 13.35832385 143.16388288 31.734375 139.1953125 C32.54512985 139.02073517 33.3558847 138.84615784 34.19120789 138.66629028 C35.71858502 138.33668141 37.24548806 138.00486445 38.77180481 137.67037964 C62.65859215 132.50851638 84.753224 134.8295512 105.84765625 147.4140625 C110.16273838 150.34111687 114.36687105 153.50487297 117.84765625 157.4140625 C117.84765625 158.0740625 117.84765625 158.7340625 117.84765625 159.4140625 C115.44572909 158.28852175 113.26665967 157.04228906 111.02734375 155.609375 C95.46752404 145.8614974 77.84425256 143.81873676 59.71875 144.66015625 C58.68721298 144.70587265 57.65567596 144.75158905 56.59288025 144.7986908 C43.90572032 145.44938968 31.3555888 147.18316175 18.77758789 148.90551758 C-16.39863629 153.67522158 -54.20888366 154.07521134 -83.90234375 131.6640625 C-96.35758407 121.86162175 -104.77135473 109.75304913 -111.609375 95.58203125 C-112.6930678 93.35703159 -113.81950899 91.15259162 -114.9765625 88.96484375 C-120.33224389 78.82960126 -123.47909473 68.88033491 -124.15234375 57.4140625 C-124.19359375 56.72183594 -124.23484375 56.02960938 -124.27734375 55.31640625 C-124.7938901 37.52784131 -118.55100866 19.52252817 -106.34375 6.4140625 C-77.02654497 -20.34245974 -32.17469581 -23.7076706 0 0 Z M-100.8125 12.6171875 C-102.40727148 14.75594809 -103.42972166 16.8447395 -104.15234375 19.4140625 C-103.43175781 18.68058594 -102.71117187 17.94710937 -101.96875 17.19140625 C-84.32988097 -0.20281827 -66.22431096 -4.96172645 -42.05493164 -5.2590332 C-40.83539795 -5.27667725 -39.61586426 -5.29432129 -38.359375 -5.3125 C-36.71159058 -5.32144287 -36.71159058 -5.32144287 -35.03051758 -5.33056641 C-32.20513288 -5.58125369 -30.55041312 -6.1237798 -28.15234375 -7.5859375 C-28.97870106 -9.79539494 -28.97870106 -9.79539494 -31.3125 -10.4375 C-58.29136083 -17.62702146 -82.96022607 -8.38548771 -100.8125 12.6171875 Z " fill="#010101" transform="translate(271.15234375,137.5859375)"/>
<path d="M0 0 C2.70894767 -0.08144943 5.41541263 -0.14070614 8.125 -0.1875 C8.88554687 -0.21263672 9.64609375 -0.23777344 10.4296875 -0.26367188 C15.35374468 -0.32734503 18.77164046 0.18109364 23 3 C24.13203164 6.32534294 24.35687583 8.09591455 23.0625 11.375 C22.5365625 12.179375 22.5365625 12.179375 22 13 C22.495 13.515625 22.99 14.03125 23.5 14.5625 C25.59311615 17.96381375 25.55147685 20.07072743 25 24 C23.14453125 26.703125 23.14453125 26.703125 20 29 C16.37496727 29.60739569 12.84989963 29.47237641 9.1875 29.3125 C7.71893555 29.27866211 7.71893555 29.27866211 6.22070312 29.24414062 C3.81222545 29.18539727 1.40690922 29.10332129 -1 29 C1 27 1 27 4 26 C4.33 18.41 4.66 10.82 5 3 C3.35 2.67 1.7 2.34 0 2 C0 1.34 0 0.68 0 0 Z M10 2 C10 5.3 10 8.6 10 12 C14.16938808 12.33467338 14.16938808 12.33467338 17.9375 10.8125 C19.22458658 8.98150357 19.22458658 8.98150357 18.9375 6.4375 C18.21864905 3.9071765 18.21864905 3.9071765 16.1875 2.6875 C13.74616953 1.8001156 13.74616953 1.8001156 10 2 Z M10 14 C9.97313447 15.97909398 9.95366625 17.95828971 9.9375 19.9375 C9.92589844 21.03964844 9.91429687 22.14179688 9.90234375 23.27734375 C9.68737429 25.91447634 9.68737429 25.91447634 11 27 C14.48055874 26.82432642 14.48055874 26.82432642 18 26 C20.36139302 23.10538099 20.36139302 23.10538099 19.8125 19.4375 C19.35160238 15.74174248 19.35160238 15.74174248 16 14 C12.87478167 13.83300768 12.87478167 13.83300768 10 14 Z " fill="#020202" transform="translate(259,324)"/>
<path d="M0 0 C3.75317323 1.59709499 6.31940288 3.93646044 9 7 C10.75138012 12.25414036 10.98290651 17.74824575 8.5 22.8125 C5.89482345 26.75695745 2.45348219 28.6265721 -2 30 C-7.36299846 31.00816056 -11.58943861 29.83955011 -16.3046875 27.1953125 C-19.93701902 24.63426769 -20.80174978 21.82350092 -21.8125 17.625 C-22.03012483 13.41758656 -21.68969511 10.87221796 -20 7 C-13.83301965 0.40310996 -8.90892929 -0.72304354 0 0 Z M-15 7 C-16.85874236 10.71748473 -16.43625181 14.94285813 -16 19 C-14.1102152 23.15752655 -12.55852882 24.65223677 -8.6875 27.0625 C-4.99082843 28.31253902 -4.99082843 28.31253902 -1.25 27.0625 C2.54262922 24.65563915 3.61332265 23.24160129 5 19 C5.56138108 13.76044321 4.85632372 10.43222647 2 6 C-0.6410863 3.28753299 -2.21167244 2.15095634 -5.9375 1.4375 C-10.22009755 2.22409955 -11.89669894 3.96886873 -15 7 Z " fill="#020202" transform="translate(309,324)"/>
<path d="M0 0 C3.75317323 1.59709499 6.31940288 3.93646044 9 7 C10.75138012 12.25414036 10.98290651 17.74824575 8.5 22.8125 C5.89482345 26.75695745 2.45348219 28.6265721 -2 30 C-7.36299846 31.00816056 -11.58943861 29.83955011 -16.3046875 27.1953125 C-19.93701902 24.63426769 -20.80174978 21.82350092 -21.8125 17.625 C-22.03012483 13.41758656 -21.68969511 10.87221796 -20 7 C-13.83301965 0.40310996 -8.90892929 -0.72304354 0 0 Z M-15 7 C-16.85874236 10.71748473 -16.43625181 14.94285813 -16 19 C-14.1102152 23.15752655 -12.55852882 24.65223677 -8.6875 27.0625 C-4.99082843 28.31253902 -4.99082843 28.31253902 -1.25 27.0625 C2.56774432 24.63970072 3.626518 23.28203212 5 19 C5.71585959 14.51692929 5.3929996 11.7438921 3.25 7.6875 C0.31532877 4.18219825 -1.3004304 2.29557732 -5.875 1.5 C-10.2394451 2.19831122 -11.85406918 3.92723037 -15 7 Z " fill="#020202" transform="translate(196,324)"/>
<path d="M0 0 C1.83498047 -0.03867187 1.83498047 -0.03867187 3.70703125 -0.078125 C7.44181539 0.27397586 9.23847895 0.98396587 12.1875 3.25 C14.52918764 6.76253146 14.68373677 8.11469356 14.1875 12.25 C12.38756226 14.94990662 11.103727 16.7918865 8.1875 18.25 C5.5151379 18.38415472 2.86499512 18.29318541 0.1875 18.25 C0.31125 20.1371875 0.31125 20.1371875 0.4375 22.0625 C0.48390625 22.77019531 0.5303125 23.47789062 0.578125 24.20703125 C1.14144027 26.83537435 1.14144027 26.83537435 5.1875 29.25 C0.8975 29.25 -3.3925 29.25 -7.8125 29.25 C-7.4825 28.59 -7.1525 27.93 -6.8125 27.25 C-6.1525 27.25 -5.4925 27.25 -4.8125 27.25 C-4.89307261 23.29081323 -5.00593945 19.33320163 -5.125 15.375 C-5.14755859 14.24707031 -5.17011719 13.11914062 -5.19335938 11.95703125 C-5.22880859 10.88066406 -5.26425781 9.80429687 -5.30078125 8.6953125 C-5.32696533 7.70031738 -5.35314941 6.70532227 -5.38012695 5.68017578 C-5.52281006 4.87821777 -5.66549316 4.07625977 -5.8125 3.25 C-6.8025 2.59 -7.7925 1.93 -8.8125 1.25 C-5.88789571 -0.21230215 -3.25597176 0.04091273 0 0 Z M0.1875 2.25 C0.1875 6.54 0.1875 10.83 0.1875 15.25 C5.82392671 15.87775245 5.82392671 15.87775245 8.125 13.6875 C9.65851201 10.16944304 9.20118293 7.89925853 8.1875 4.25 C5.36450309 2.01107141 3.9083921 2.25 0.1875 2.25 Z " fill="#010101" transform="translate(157.8125,323.75)"/>
<path d="M0 0 C4.29 0 8.58 0 13 0 C12.34 1.32 11.68 2.64 11 4 C11.8426307 6.2193451 11.8426307 6.2193451 13.375 8.25 C13.85710937 8.95640625 14.33921875 9.6628125 14.8359375 10.390625 C15.22007812 10.92171875 15.60421875 11.4528125 16 12 C18.40072955 9.11912454 20.47291037 6.43595166 22 3 C21.34 2.01 20.68 1.02 20 0 C23.63 0 27.26 0 31 0 C30.319375 0.5775 29.63875 1.155 28.9375 1.75 C23.89989369 6.83103395 18.6331075 14.22681315 18.375 21.5625 C18.7147362 25.28394618 18.7147362 25.28394618 22 28 C17.71 28 13.42 28 9 28 C9.33 27.34 9.66 26.68 10 26 C10.99 26 11.98 26 13 26 C13 17.10491599 9.08609351 11.04881605 4 4 C2.68 2.68 1.36 1.36 0 0 Z " fill="#020202" transform="translate(321,325)"/>
<path d="M0 0 C8.91 0 17.82 0 27 0 C27 2.64 27 5.28 27 8 C26.34 7.67 25.68 7.34 25 7 C25 6.01 25 5.02 25 4 C22.03 3.67 19.06 3.34 16 3 C16 10.92 16 18.84 16 27 C17.65 27.33 19.3 27.66 21 28 C21 28.33 21 28.66 21 29 C16.05 29 11.1 29 6 29 C7.32 28.01 8.64 27.02 10 26 C10.64070996 23.49925826 10.64070996 23.49925826 10.609375 20.67578125 C10.64160156 19.64775391 10.67382812 18.61972656 10.70703125 17.56054688 C10.72830078 15.95276367 10.72830078 15.95276367 10.75 14.3125 C10.79447266 12.68731445 10.79447266 12.68731445 10.83984375 11.02929688 C10.91058844 8.35278941 10.96326156 5.67715521 11 3 C9.06640625 3.18369141 9.06640625 3.18369141 7.09375 3.37109375 C6.36865234 3.43997803 5.64355469 3.5088623 4.89648438 3.57983398 C2.77543436 3.83011518 2.77543436 3.83011518 1.5 6.0625 C1.335 6.701875 1.17 7.34125 1 8 C0.34 8 -0.32 8 -1 8 C-0.67 5.36 -0.34 2.72 0 0 Z " fill="#020202" transform="translate(230,324)"/>
<path d="M0 0 C0.99 0.66 1.98 1.32 3 2 C3.1875 4.625 3.1875 4.625 3 7 C2.34 7 1.68 7 1 7 C0.401875 6.319375 -0.19625 5.63875 -0.8125 4.9375 C-1.534375 4.298125 -2.25625 3.65875 -3 3 C-5.70705512 3.14025199 -5.70705512 3.14025199 -8 4 C-7.68565769 7.20960041 -7.36997726 8.64522728 -5.00390625 10.9140625 C-4.19824219 11.47867187 -3.39257812 12.04328125 -2.5625 12.625 C0.36635634 14.7029366 1.97794627 15.96691941 4 19 C4.60839155 22.99800164 4.33251303 24.52201252 2 27.875 C-2.09864902 30.77820972 -4.04549476 30.47185764 -9 30 C-11.5 29.5 -11.5 29.5 -13 29 C-13.33 26.69 -13.66 24.38 -14 22 C-11 23 -11 23 -9.125 25.125 C-8.42375 25.74375 -7.7225 26.3625 -7 27 C-4.29294488 26.85974801 -4.29294488 26.85974801 -2 26 C-1.04497842 24.27523089 -1.04497842 24.27523089 -1 22 C-3.47272702 19.07768625 -6.30657093 16.73566194 -9.25 14.3125 C-12.37536228 11.68435445 -12.88080963 11.0965514 -13.3125 7.125 C-13 4 -13 4 -11.5625 1.625 C-7.85660314 -0.72508094 -4.28644991 -0.67888525 0 0 Z " fill="#020202" transform="translate(223,324)"/>
<path d="M0 0 C0.89203125 0.01804687 1.7840625 0.03609375 2.703125 0.0546875 C3.71632813 0.08949219 3.71632813 0.08949219 4.75 0.125 C2.4971953 2.3778047 1.35907512 2.6746379 -1.6875 3.375 C-2.46996094 3.56578125 -3.25242187 3.7565625 -4.05859375 3.953125 C-6.25 4.125 -6.25 4.125 -9.25 2.125 C-6.03817851 0.21891902 -3.71117397 -0.09766247 0 0 Z " fill="#080808" transform="translate(303.25,323.875)"/>
</svg>
